<?xml version="1.0" standalone="no"?>
<!DOCTYPE svg PUBLIC "-//W3C//DTD SVG 20010904//EN"
 "http://www.w3.org/TR/2001/REC-SVG-20010904/DTD/svg10.dtd">
<svg version="1.0" xmlns="http://www.w3.org/2000/svg"
 width="1024.000000pt" height="1024.000000pt" viewBox="0 0 1024.000000 1024.000000"
 preserveAspectRatio="xMidYMid meet">
<metadata>
Created by potrace 1.11, written by Peter Selinger 2001-2013
</metadata>
<g transform="translate(0.000000,1024.000000) scale(0.100000,-0.100000)"
fill="#000000" stroke="none">
<path d="M4937 9744 c-1 -1 -42 -5 -92 -8 -112 -8 -211 -20 -255 -31 -182 -47
-284 -114 -463 -303 -45 -48 -58 -68 -56 -90 1 -15 -10 -52 -24 -82 -15 -33
-32 -99 -42 -163 -10 -66 -33 -151 -58 -220 -35 -96 -41 -124 -42 -192 0 -80
7 -157 20 -206 7 -29 -10 -66 -76 -169 -38 -58 -76 -161 -83 -220 -5 -55 10
-76 71 -95 59 -19 220 -27 265 -14 16 4 28 5 28 3 0 -3 -15 -25 -32 -48 -43
-57 -53 -72 -99 -144 -38 -60 -78 -94 -240 -208 -422 -295 -534 -371 -694
-473 -71 -46 -132 -86 -135 -90 -3 -3 -16 -14 -30 -22 -36 -24 -195 -151 -244
-196 -40 -37 -158 -144 -341 -308 -120 -108 -287 -275 -360 -360 -33 -38 -67
-76 -75 -85 -15 -17 -21 -24 -100 -120 -25 -30 -47 -57 -50 -60 -14 -12 -171
-212 -221 -280 -118 -162 -197 -325 -232 -480 -46 -204 -43 -187 -53 -326 -6
-89 -5 -105 12 -133 36 -61 105 -57 179 10 20 19 49 38 64 45 15 6 34 18 42
25 26 24 165 103 171 97 2 -2 17 6 33 18 30 20 277 143 390 194 80 36 95 39
199 41 147 3 342 55 480 128 61 32 315 214 341 244 6 7 30 28 55 48 25 20 71
62 104 93 32 31 60 55 63 52 2 -2 -4 -21 -15 -43 -117 -229 -166 -738 -116
-1198 11 -100 97 -410 153 -550 5 -11 18 -47 31 -80 12 -33 53 -123 90 -200
37 -77 77 -161 89 -187 13 -26 45 -85 73 -130 27 -46 57 -96 66 -112 48 -82
170 -231 251 -306 l92 -85 -5 -115 c-2 -63 -5 -117 -5 -120 -1 -3 -135 -4
-298 -3 -423 2 -401 7 -933 -202 -173 -68 -360 -140 -415 -160 -218 -79 -471
-229 -624 -370 -101 -93 -161 -166 -225 -275 -108 -185 -153 -508 -96 -695 19
-62 29 -77 88 -134 74 -70 166 -120 234 -126 24 -2 72 -13 108 -24 174 -53
608 -141 770 -155 140 -13 259 -16 925 -21 1507 -13 2082 -11 2193 9 9 2 49 7
87 10 39 4 81 9 95 11 14 2 52 6 85 10 33 3 76 8 95 10 83 10 209 25 255 30
28 3 57 8 65 10 8 2 47 7 85 10 39 4 77 8 85 10 8 2 42 7 75 10 96 11 245 45
309 72 138 58 289 189 344 299 56 112 149 338 171 414 34 124 24 161 -127 460
-221 437 -297 555 -406 629 -70 47 -241 112 -371 140 -78 17 -165 23 -425 30
-33 1 -34 1 -13 16 55 39 146 192 212 360 65 166 100 233 194 374 102 153 153
300 177 511 19 164 22 192 23 293 2 85 0 98 -15 103 -10 3 -26 3 -35 -1 -10
-3 -70 -76 -133 -161 -63 -84 -117 -154 -119 -154 -2 0 0 11 3 26 33 132 52
419 35 544 -11 80 -49 251 -59 265 -4 6 -12 28 -18 50 -6 22 -31 96 -57 165
-76 203 -175 520 -199 635 -13 61 -13 67 0 50 102 -138 392 -322 569 -360 44
-9 118 -28 165 -40 122 -34 190 -45 360 -59 72 -6 227 -48 267 -72 17 -10 76
-51 130 -90 54 -38 145 -100 202 -138 91 -59 169 -115 265 -188 56 -43 67 -46
114 -26 53 24 64 49 65 148 1 63 -6 95 -40 196 -78 228 -158 365 -348 593 -96
116 -252 272 -380 380 -80 68 -133 123 -275 281 -95 106 -177 188 -370 370
-296 280 -527 515 -565 575 -21 33 -67 119 -102 190 -34 72 -68 137 -73 145
-6 8 -38 87 -71 175 -141 371 -146 398 -164 880 -7 196 -14 305 -21 340 -23
117 -118 342 -177 420 -4 5 -24 35 -45 66 -79 119 -124 180 -163 219 -67 66
-210 138 -306 153 -56 9 -301 26 -306 21z m-950 -1226 c-3 -7 -5 -2 -5 12 0
14 2 19 5 13 2 -7 2 -19 0 -25z m-2405 -3700 c-7 -7 -12 -8 -12 -2 0 14 12 26
19 19 2 -3 -1 -11 -7 -17z m6478 2 c0 -5 -2 -10 -4 -10 -3 0 -8 5 -11 10 -3 6
-1 10 4 10 6 0 11 -4 11 -10z m-1339 -853 c-13 -13 -15 1 -4 30 7 17 8 17 11
-1 2 -10 -1 -23 -7 -29z m-1057 -1486 c3 -5 -6 -11 -21 -14 -26 -5 -26 -4 -8
9 22 17 22 17 29 5z"/>
</g>
</svg>
